<?xml version="1.0" encoding="iso-8859-1"?>
<!-- Uploaded to: SVG Repo, www.svgrepo.com, Generator: SVG Repo Mixer Tools -->
<svg fill="#000000" height="800px" width="800px" version="1.1" id="Capa_1" xmlns="http://www.w3.org/2000/svg" xmlns:xlink="http://www.w3.org/1999/xlink" 
	 viewBox="0 0 512 512" xml:space="preserve">
<g>
	<g>
		<path d="M503.916,153.88c4.466,0,8.084-3.62,8.084-8.084v-31.459c0-20.619-16.775-37.394-37.393-37.394H37.393
			C16.775,76.942,0,93.718,0,114.336v283.326c0,20.62,16.775,37.395,37.393,37.395h437.212c20.619,0,37.393-16.776,37.393-37.395
			V172.024c0-4.465-3.619-8.084-8.084-8.084s-8.084,3.62-8.084,8.084v225.637c0,11.705-9.522,21.227-21.225,21.227H37.393
			c-11.703,0-21.225-9.522-21.225-21.227V114.336c0-11.704,9.522-21.226,21.225-21.226h437.212c11.703,0,21.225,9.522,21.225,21.226
			v31.459C495.832,150.26,499.45,153.88,503.916,153.88z"/>
	</g>
</g>
<g>
	<g>
		<path d="M387.84,171.529c-12.455,0.001-24.669,3.702-35.016,10.5c-10.344-6.798-22.558-10.5-35.013-10.5
			c-35.137,0-63.722,28.587-63.722,63.724c0,35.136,28.586,63.721,63.722,63.721c12.458,0,24.672-3.7,35.013-10.499
			c10.345,6.798,22.559,10.499,35.016,10.499c35.137,0,63.722-28.585,63.722-63.721C451.562,200.115,422.976,171.529,387.84,171.529
			z M317.811,282.805c-26.221,0-47.553-21.332-47.553-47.552c0-26.222,21.333-47.556,47.553-47.556
			c7.875,0,15.403,1.869,22.178,5.463l-0.001,0.001c-0.025,0.028-0.047,0.058-0.072,0.086c-0.694,0.789-1.362,1.596-2.014,2.416
			c-0.217,0.273-0.424,0.552-0.636,0.829c-0.454,0.59-0.899,1.185-1.33,1.789c-0.226,0.318-0.449,0.637-0.67,0.959
			c-0.412,0.599-0.811,1.205-1.2,1.817c-0.196,0.308-0.397,0.615-0.587,0.927c-0.458,0.746-0.897,1.503-1.323,2.267
			c-0.098,0.177-0.205,0.349-0.302,0.527c-0.514,0.943-1.001,1.9-1.467,2.868c-0.127,0.265-0.244,0.535-0.367,0.801
			c-0.331,0.714-0.652,1.431-0.956,2.157c-0.146,0.348-0.285,0.698-0.425,1.05c-0.267,0.67-0.523,1.346-0.766,2.026
			c-0.127,0.356-0.255,0.71-0.377,1.068c-0.254,0.75-0.49,1.507-0.717,2.268c-0.083,0.278-0.174,0.554-0.252,0.834
			c-0.293,1.038-0.563,2.084-0.803,3.139c-0.046,0.204-0.082,0.411-0.127,0.614c-0.186,0.856-0.359,1.716-0.51,2.583
			c-0.064,0.362-0.117,0.725-0.174,1.09c-0.114,0.728-0.218,1.457-0.307,2.19c-0.047,0.388-0.093,0.775-0.133,1.164
			c-0.078,0.756-0.139,1.514-0.191,2.275c-0.024,0.345-0.053,0.69-0.07,1.036c-0.056,1.099-0.093,2.202-0.093,3.311
			s0.036,2.212,0.093,3.311c0.017,0.347,0.047,0.692,0.07,1.038c0.052,0.76,0.112,1.518,0.191,2.272
			c0.04,0.39,0.085,0.779,0.133,1.167c0.089,0.732,0.193,1.461,0.306,2.186c0.057,0.364,0.111,0.73,0.175,1.093
			c0.151,0.861,0.322,1.717,0.508,2.57c0.045,0.209,0.082,0.419,0.129,0.627c0.24,1.053,0.509,2.098,0.802,3.133
			c0.081,0.286,0.174,0.566,0.258,0.85c0.224,0.755,0.459,1.505,0.71,2.249c0.123,0.362,0.252,0.721,0.382,1.081
			c0.242,0.675,0.496,1.345,0.761,2.01c0.141,0.355,0.282,0.71,0.43,1.062c0.302,0.72,0.62,1.431,0.949,2.138
			c0.126,0.273,0.245,0.548,0.375,0.818c0.465,0.966,0.951,1.921,1.464,2.862c0.099,0.182,0.208,0.359,0.308,0.54
			c0.424,0.76,0.86,1.512,1.316,2.255c0.192,0.313,0.391,0.62,0.589,0.929c0.39,0.612,0.789,1.219,1.201,1.818
			c0.22,0.32,0.441,0.638,0.666,0.954c0.434,0.608,0.883,1.207,1.339,1.801c0.209,0.272,0.413,0.548,0.627,0.816
			c0.665,0.836,1.347,1.662,2.057,2.467c0.01,0.011,0.018,0.023,0.028,0.033c0.002,0.002,0.004,0.004,0.005,0.008
			C333.216,280.937,325.687,282.805,317.811,282.805z M365.296,237.748c-0.014,0.264-0.038,0.526-0.055,0.789
			c-0.039,0.567-0.083,1.133-0.142,1.696c-0.031,0.303-0.069,0.604-0.106,0.905c-0.066,0.529-0.139,1.055-0.222,1.58
			c-0.047,0.3-0.095,0.599-0.148,0.898c-0.097,0.548-0.207,1.092-0.322,1.634c-0.056,0.261-0.107,0.523-0.167,0.781
			c-0.168,0.725-0.352,1.447-0.554,2.161c-0.019,0.068-0.034,0.137-0.054,0.204c-0.224,0.785-0.473,1.561-0.737,2.33
			c-0.078,0.225-0.164,0.447-0.245,0.672c-0.195,0.542-0.398,1.083-0.612,1.618c-0.109,0.269-0.222,0.536-0.336,0.803
			c-0.208,0.489-0.423,0.976-0.647,1.457c-0.125,0.269-0.251,0.539-0.382,0.806c-0.239,0.49-0.489,0.975-0.746,1.458
			c-0.127,0.239-0.25,0.481-0.382,0.718c-0.33,0.595-0.675,1.182-1.029,1.763c-0.069,0.112-0.131,0.227-0.2,0.338
			c-0.43,0.69-0.88,1.368-1.345,2.035c-0.132,0.189-0.272,0.372-0.406,0.559c-0.342,0.474-0.688,0.946-1.048,1.409
			c-0.184,0.237-0.374,0.469-0.563,0.703c-0.329,0.407-0.664,0.811-1.007,1.208c-0.207,0.239-0.415,0.476-0.626,0.712
			c-0.127,0.141-0.261,0.278-0.39,0.418c-0.128-0.139-0.262-0.275-0.388-0.416c-0.212-0.236-0.421-0.475-0.63-0.716
			c-0.341-0.396-0.674-0.796-1.001-1.201c-0.191-0.236-0.383-0.472-0.569-0.711c-0.355-0.456-0.696-0.921-1.033-1.388
			c-0.139-0.194-0.285-0.384-0.421-0.58c-0.464-0.665-0.912-1.341-1.34-2.028c-0.076-0.121-0.143-0.246-0.218-0.366
			c-0.349-0.572-0.689-1.15-1.013-1.735c-0.135-0.243-0.261-0.489-0.39-0.734c-0.252-0.476-0.5-0.955-0.736-1.439
			c-0.134-0.273-0.262-0.548-0.39-0.824c-0.22-0.474-0.431-0.953-0.636-1.435c-0.116-0.275-0.234-0.549-0.345-0.826
			c-0.211-0.525-0.409-1.055-0.6-1.588c-0.084-0.233-0.174-0.464-0.254-0.698c-0.263-0.767-0.51-1.54-0.734-2.322
			c-0.023-0.08-0.041-0.162-0.064-0.241c-0.197-0.703-0.379-1.411-0.544-2.125c-0.061-0.263-0.113-0.529-0.169-0.794
			c-0.115-0.538-0.224-1.077-0.32-1.62c-0.054-0.302-0.102-0.606-0.15-0.909c-0.082-0.522-0.155-1.044-0.22-1.57
			c-0.038-0.304-0.076-0.607-0.107-0.912c-0.058-0.56-0.102-1.124-0.141-1.689c-0.018-0.265-0.042-0.529-0.056-0.795
			c-0.043-0.828-0.069-1.659-0.069-2.494c0-0.835,0.027-1.665,0.069-2.494c0.014-0.266,0.038-0.53,0.056-0.796
			c0.039-0.565,0.083-1.129,0.141-1.689c0.031-0.305,0.069-0.608,0.107-0.912c0.065-0.526,0.138-1.049,0.22-1.57
			c0.047-0.304,0.096-0.607,0.15-0.909c0.096-0.543,0.205-1.082,0.32-1.62c0.056-0.265,0.108-0.53,0.169-0.794
			c0.165-0.713,0.346-1.42,0.543-2.122c0.023-0.081,0.041-0.164,0.064-0.245c0.224-0.78,0.471-1.553,0.734-2.321
			c0.081-0.236,0.171-0.468,0.255-0.702c0.192-0.531,0.389-1.061,0.599-1.585c0.112-0.278,0.23-0.553,0.346-0.828
			c0.204-0.481,0.415-0.958,0.635-1.431c0.128-0.277,0.258-0.553,0.391-0.827c0.236-0.483,0.482-0.96,0.734-1.435
			c0.13-0.246,0.258-0.494,0.392-0.737c0.324-0.585,0.663-1.162,1.012-1.734c0.074-0.122,0.142-0.247,0.218-0.368
			c0.428-0.688,0.876-1.362,1.34-2.029c0.135-0.194,0.278-0.382,0.416-0.573c0.338-0.471,0.683-0.939,1.039-1.398
			c0.183-0.236,0.373-0.469,0.562-0.702c0.33-0.409,0.666-0.814,1.011-1.213c0.204-0.236,0.41-0.472,0.619-0.705
			c0.128-0.143,0.263-0.28,0.393-0.422c0.131,0.142,0.267,0.281,0.398,0.426c0.207,0.231,0.411,0.463,0.613,0.697
			c0.346,0.4,0.683,0.806,1.014,1.217c0.189,0.233,0.378,0.466,0.562,0.702c0.356,0.458,0.7,0.926,1.038,1.396
			c0.138,0.192,0.282,0.38,0.417,0.575c0.463,0.665,0.911,1.34,1.339,2.026c0.08,0.127,0.151,0.259,0.23,0.387
			c0.345,0.565,0.68,1.135,1,1.713c0.137,0.248,0.266,0.499,0.399,0.749c0.25,0.471,0.495,0.944,0.728,1.423
			c0.135,0.277,0.266,0.556,0.396,0.836c0.218,0.47,0.428,0.944,0.631,1.421c0.118,0.278,0.237,0.555,0.349,0.835
			c0.209,0.521,0.405,1.047,0.596,1.575c0.086,0.237,0.178,0.473,0.26,0.711c0.263,0.765,0.509,1.536,0.733,2.315
			c0.026,0.088,0.045,0.179,0.07,0.267c0.194,0.694,0.374,1.393,0.537,2.096c0.061,0.267,0.114,0.538,0.171,0.806
			c0.114,0.535,0.222,1.071,0.318,1.611c0.054,0.302,0.102,0.606,0.15,0.909c0.082,0.522,0.155,1.044,0.22,1.57
			c0.038,0.304,0.075,0.608,0.107,0.913c0.058,0.56,0.102,1.123,0.141,1.688c0.018,0.265,0.042,0.53,0.056,0.797
			c0.043,0.828,0.069,1.659,0.069,2.493C365.366,236.089,365.339,236.919,365.296,237.748z M387.841,282.805
			c-7.876,0-15.405-1.868-22.18-5.462c0.002-0.002,0.003-0.004,0.004-0.005c0.011-0.012,0.021-0.025,0.031-0.038
			c0.707-0.803,1.388-1.627,2.052-2.461c0.217-0.273,0.424-0.551,0.636-0.827c0.453-0.59,0.898-1.184,1.329-1.787
			c0.23-0.32,0.454-0.643,0.677-0.968c0.406-0.592,0.801-1.191,1.187-1.797c0.202-0.317,0.406-0.632,0.603-0.951
			c0.445-0.726,0.872-1.463,1.287-2.205c0.111-0.197,0.23-0.391,0.337-0.59c0.51-0.936,0.994-1.885,1.456-2.846
			c0.136-0.282,0.26-0.57,0.391-0.855c0.321-0.695,0.635-1.394,0.931-2.101c0.151-0.36,0.295-0.723,0.44-1.086
			c0.262-0.658,0.512-1.318,0.751-1.984c0.132-0.366,0.264-0.733,0.389-1.103c0.248-0.732,0.479-1.471,0.7-2.213
			c0.088-0.295,0.184-0.589,0.268-0.885c0.292-1.033,0.559-2.072,0.799-3.12c0.05-0.217,0.087-0.437,0.135-0.654
			c0.183-0.843,0.354-1.69,0.502-2.543c0.065-0.368,0.119-0.737,0.177-1.107c0.113-0.721,0.216-1.445,0.305-2.173
			c0.047-0.391,0.093-0.783,0.134-1.175c0.078-0.752,0.139-1.508,0.19-2.266c0.024-0.348,0.053-0.695,0.071-1.044
			c0.056-1.098,0.093-2.201,0.093-3.309c0-1.108-0.036-2.212-0.093-3.311c-0.018-0.347-0.047-0.692-0.071-1.038
			c-0.052-0.76-0.112-1.519-0.191-2.273c-0.04-0.39-0.085-0.778-0.133-1.166c-0.089-0.732-0.193-1.461-0.306-2.186
			c-0.057-0.365-0.111-0.731-0.175-1.094c-0.151-0.865-0.323-1.722-0.509-2.577c-0.045-0.206-0.081-0.413-0.128-0.618
			c-0.24-1.054-0.51-2.1-0.803-3.137c-0.08-0.281-0.17-0.558-0.254-0.839c-0.226-0.759-0.462-1.514-0.716-2.264
			c-0.121-0.357-0.249-0.711-0.376-1.066c-0.245-0.681-0.5-1.358-0.769-2.03c-0.139-0.35-0.278-0.7-0.424-1.047
			c-0.305-0.729-0.627-1.449-0.96-2.164c-0.122-0.264-0.237-0.53-0.363-0.792c-0.466-0.97-0.955-1.928-1.47-2.875
			c-0.092-0.168-0.193-0.332-0.287-0.5c-0.431-0.774-0.876-1.54-1.341-2.297c-0.186-0.304-0.38-0.601-0.572-0.902
			c-0.397-0.623-0.803-1.241-1.222-1.85c-0.213-0.311-0.429-0.621-0.649-0.928c-0.443-0.62-0.899-1.231-1.365-1.836
			c-0.202-0.262-0.398-0.526-0.603-0.785c-0.678-0.854-1.373-1.694-2.096-2.515c6.776-3.594,14.305-5.463,22.179-5.463
			c26.222,0,47.555,21.334,47.555,47.556C435.394,261.474,414.061,282.805,387.841,282.805z"/>
	</g>
</g>
<g>
	<g>
		<path d="M169.658,312.565H66.715c-4.466,0-8.084,3.62-8.084,8.084c0,4.466,3.618,8.084,8.084,8.084h102.943
			c4.466,0,8.084-3.618,8.084-8.084C177.743,316.183,174.124,312.565,169.658,312.565z"/>
	</g>
</g>
<g>
	<g>
		<path d="M169.658,346.279H66.715c-4.466,0-8.084,3.619-8.084,8.084c0,4.466,3.618,8.084,8.084,8.084h102.943
			c4.466,0,8.084-3.618,8.084-8.084C177.743,349.898,174.124,346.279,169.658,346.279z"/>
	</g>
</g>
<g>
	<g>
		<path d="M161.611,177.449H73.794c-8.36,0-15.162,6.802-15.162,15.161v68.436c-0.001,8.36,6.802,15.162,15.162,15.162h87.817
			c8.36,0,15.162-6.802,15.162-15.162V192.61C176.773,184.25,169.971,177.449,161.611,177.449z M94.168,260.039H74.799v-11.36
			h19.369V260.039z M94.168,232.51H74.799v-11.364h19.369V232.51z M94.168,204.977H74.799v-11.36h19.369V204.977z M160.604,260.039
			h-50.268v-66.421h0.001h18.682v46.977c0,4.465,3.618,8.084,8.084,8.084h23.501V260.039z M160.604,232.51h-15.417v-11.364h15.417
			V232.51z M160.604,204.977h-15.417v-11.36h15.417V204.977z"/>
	</g>
</g>
</svg>