<svg id="Layer_1" data-name="Layer 1" xmlns="http://www.w3.org/2000/svg" viewBox="0 0 122.88 119.78"><title>realtime</title><path d="M63,7.81A3.91,3.91,0,1,1,63,0,59.63,59.63,0,0,1,93.56,8.38l-.39.33c-1.74,1.57-3.57,3.4-5.42,5.35A52,52,0,0,0,63,7.81ZM47.94,47.25l10.36-.14.77.2A38.58,38.58,0,0,1,65,51.45a41.08,41.08,0,0,1,3.81,3.67A240.17,240.17,0,0,1,83.9,34.31C88.49,28.78,95,21,100.09,16.45l1-.39h11.31l-2.28,2.53A293.89,293.89,0,0,0,89.38,45.44c-5.75,8.31-14.15,21.18-18.72,30l-1.42,2.74-1.31-2.79A67.83,67.83,0,0,0,59.2,61.23,57.29,57.29,0,0,0,47.09,50l.85-2.77ZM40.13,31.7a3.89,3.89,0,1,1,6.74-3.87l1.75,3a3.89,3.89,0,1,1-6.75,3.88l-1.74-3ZM28.76,46.92a3.9,3.9,0,0,1,3.91-6.75l3,1.75a3.9,3.9,0,0,1-3.91,6.75l-3-1.75ZM34.25,82.8a3.89,3.89,0,0,1-3.88-6.75l3-1.75a3.89,3.89,0,0,1,3.88,6.75l-3,1.75Zm-8.34-19a3.89,3.89,0,1,1,0-7.78H29.4a3.89,3.89,0,1,1,0,7.78Zm39.77,32a3.89,3.89,0,0,1-7.78,0v-3.5a3.89,3.89,0,0,1,7.78,0v3.5ZM57.9,24a3.89,3.89,0,0,1,7.78,0V27.5a3.89,3.89,0,1,1-7.78,0V24ZM47.22,92.91A3.89,3.89,0,1,1,40.48,89l1.74-3A3.9,3.9,0,0,1,49,89.89l-1.75,3ZM84.7,89A3.89,3.89,0,0,1,78,92.9l-1.75-3A3.89,3.89,0,0,1,83,86l1.75,3Zm10.11-13a3.9,3.9,0,0,1-3.9,6.75l-3-1.75a3.9,3.9,0,0,1,3.91-6.75l3,1.75Zm5.26-20a3.89,3.89,0,1,1,0,7.78H96.35a3.89,3.89,0,0,1,0-7.78ZM16.5,17a5.17,5.17,0,0,1,1.57-.32,5.05,5.05,0,0,1,5.65,3.53L27.87,33.7a5.07,5.07,0,1,1-9.7,2.94l-.66-2.15a52.08,52.08,0,0,0,82.3,62.22,52.09,52.09,0,0,0,9.43-60.78c1.74-2.24,3.52-4.45,5.29-6.55A59.89,59.89,0,1,1,3.1,59.89a59.82,59.82,0,0,1,8.07-30L6.89,31.51A5.08,5.08,0,1,1,3.28,22L16.5,17Z"/></svg>