<svg width="42" height="42" viewBox="0 0 42 42" fill="none" xmlns="http://www.w3.org/2000/svg">
<path d="M10.5 30V28H15.5V26H11.5V24H15.5V22H12.55V20H15.5V17.05L13.55 12.85L15.35 12L17.7 17H29.3L27.35 12.85L29.15 12L31.5 17V30H10.5ZM21.5 23H25.5C25.7833 23 26.0208 22.9042 26.2125 22.7125C26.4042 22.5208 26.5 22.2833 26.5 22C26.5 21.7167 26.4042 21.4792 26.2125 21.2875C26.0208 21.0958 25.7833 21 25.5 21H21.5C21.2167 21 20.9792 21.0958 20.7875 21.2875C20.5958 21.4792 20.5 21.7167 20.5 22C20.5 22.2833 20.5958 22.5208 20.7875 22.7125C20.9792 22.9042 21.2167 23 21.5 23ZM17.5 28H29.5V19H17.5V28Z" fill="#606060"/>
</svg>
