<svg width="42" height="42" viewBox="0 0 42 42" fill="none" xmlns="http://www.w3.org/2000/svg">
<path d="M28.4322 21.98C28.4722 21.66 28.5022 21.34 28.5022 21C28.5022 20.66 28.4722 20.34 28.4322 20.02L30.5422 18.37C30.7322 18.22 30.7822 17.95 30.6622 17.73L28.6622 14.27C28.5722 14.11 28.4022 14.02 28.2222 14.02C28.1622 14.02 28.1022 14.03 28.0522 14.05L25.5622 15.05C25.0422 14.65 24.4822 14.32 23.8722 14.07L23.4922 11.42C23.4622 11.18 23.2522 11 23.0022 11H19.0022C18.7522 11 18.5422 11.18 18.5122 11.42L18.1322 14.07C17.5222 14.32 16.9622 14.66 16.4422 15.05L13.9522 14.05C13.8922 14.03 13.8322 14.02 13.7722 14.02C13.6022 14.02 13.4322 14.11 13.3422 14.27L11.3422 17.73C11.2122 17.95 11.2722 18.22 11.4622 18.37L13.5722 20.02C13.5322 20.34 13.5022 20.67 13.5022 21C13.5022 21.33 13.5322 21.66 13.5722 21.98L11.4622 23.63C11.2722 23.78 11.2222 24.05 11.3422 24.27L13.3422 27.73C13.4322 27.89 13.6022 27.98 13.7822 27.98C13.8422 27.98 13.9022 27.97 13.9522 27.95L16.4422 26.95C16.9622 27.35 17.5222 27.68 18.1322 27.93L18.5122 30.58C18.5422 30.82 18.7522 31 19.0022 31H23.0022C23.2522 31 23.4622 30.82 23.4922 30.58L23.8722 27.93C24.4822 27.68 25.0422 27.34 25.5622 26.95L28.0522 27.95C28.1122 27.97 28.1722 27.98 28.2322 27.98C28.4022 27.98 28.5722 27.89 28.6622 27.73L30.6622 24.27C30.7822 24.05 30.7322 23.78 30.5422 23.63L28.4322 21.98ZM26.4522 20.27C26.4922 20.58 26.5022 20.79 26.5022 21C26.5022 21.21 26.4822 21.43 26.4522 21.73L26.3122 22.86L27.2022 23.56L28.2822 24.4L27.5822 25.61L26.3122 25.1L25.2722 24.68L24.3722 25.36C23.9422 25.68 23.5322 25.92 23.1222 26.09L22.0622 26.52L21.9022 27.65L21.7022 29H20.3022L20.1122 27.65L19.9522 26.52L18.8922 26.09C18.4622 25.91 18.0622 25.68 17.6622 25.38L16.7522 24.68L15.6922 25.11L14.4222 25.62L13.7222 24.41L14.8022 23.57L15.6922 22.87L15.5522 21.74C15.5222 21.43 15.5022 21.2 15.5022 21C15.5022 20.8 15.5222 20.57 15.5522 20.27L15.6922 19.14L14.8022 18.44L13.7222 17.6L14.4222 16.39L15.6922 16.9L16.7322 17.32L17.6322 16.64C18.0622 16.32 18.4722 16.08 18.8822 15.91L19.9422 15.48L20.1022 14.35L20.3022 13H21.6922L21.8822 14.35L22.0422 15.48L23.1022 15.91C23.5322 16.09 23.9322 16.32 24.3322 16.62L25.2422 17.32L26.3022 16.89L27.5722 16.38L28.2722 17.59L27.2022 18.44L26.3122 19.14L26.4522 20.27ZM21.0022 17C18.7922 17 17.0022 18.79 17.0022 21C17.0022 23.21 18.7922 25 21.0022 25C23.2122 25 25.0022 23.21 25.0022 21C25.0022 18.79 23.2122 17 21.0022 17ZM21.0022 23C19.9022 23 19.0022 22.1 19.0022 21C19.0022 19.9 19.9022 19 21.0022 19C22.1022 19 23.0022 19.9 23.0022 21C23.0022 22.1 22.1022 23 21.0022 23Z" fill="#606060"/>
</svg>
