<svg width="42" height="42" viewBox="0 0 42 42" fill="none" xmlns="http://www.w3.org/2000/svg">
<path d="M13 22C14.1 22 15 21.1 15 20C15 18.9 14.1 18 13 18C11.9 18 11 18.9 11 20C11 21.1 11.9 22 13 22ZM14.13 23.1C13.76 23.04 13.39 23 13 23C12.01 23 11.07 23.21 10.22 23.58C9.48 23.9 9 24.62 9 25.43V27H13.5V25.39C13.5 24.56 13.73 23.78 14.13 23.1ZM29 22C30.1 22 31 21.1 31 20C31 18.9 30.1 18 29 18C27.9 18 27 18.9 27 20C27 21.1 27.9 22 29 22ZM33 25.43C33 24.62 32.52 23.9 31.78 23.58C30.93 23.21 29.99 23 29 23C28.61 23 28.24 23.04 27.87 23.1C28.27 23.78 28.5 24.56 28.5 25.39V27H33V25.43ZM25.24 22.65C24.07 22.13 22.63 21.75 21 21.75C19.37 21.75 17.93 22.14 16.76 22.65C15.68 23.13 15 24.21 15 25.39V27H27V25.39C27 24.21 26.32 23.13 25.24 22.65ZM17.07 25C17.16 24.77 17.2 24.61 17.98 24.31C18.95 23.93 19.97 23.75 21 23.75C22.03 23.75 23.05 23.93 24.02 24.31C24.79 24.61 24.83 24.77 24.93 25H17.07ZM21 17C21.55 17 22 17.45 22 18C22 18.55 21.55 19 21 19C20.45 19 20 18.55 20 18C20 17.45 20.45 17 21 17ZM21 15C19.34 15 18 16.34 18 18C18 19.66 19.34 21 21 21C22.66 21 24 19.66 24 18C24 16.34 22.66 15 21 15Z" fill="#606060"/>
</svg>
