<svg width="42" height="42" viewBox="0 0 42 42" fill="none" xmlns="http://www.w3.org/2000/svg">
<path d="M28 10.5H14C12.89 10.5 12 11.4 12 12.5V26.5C12 27.6 12.89 28.5 14 28.5H18L21 31.5L24 28.5H28C29.1 28.5 30 27.6 30 26.5V12.5C30 11.4 29.1 10.5 28 10.5ZM28 26.5H23.17L22.58 27.09L21 28.67L19.41 27.08L18.83 26.5H14V12.5H28V26.5ZM20 23.5H22V25.5H20V23.5ZM21 15.5C22.1 15.5 23 16.4 23 17.5C23 19.5 20 19.25 20 22.5H22C22 20.25 25 20 25 17.5C25 15.29 23.21 13.5 21 13.5C18.79 13.5 17 15.29 17 17.5H19C19 16.4 19.9 15.5 21 15.5Z" fill="#606060"/>
</svg>
