<svg width="180" height="40" viewBox="0 0 180 40" fill="none" xmlns="http://www.w3.org/2000/svg">
<path d="M31.0403 16.4658C30.8457 16.4489 30.8234 16.1728 31.0131 16.1248L35.4228 15.0199C35.7718 14.933 40.4318 14.0117 40.0721 14.0117L28.2442 14.419C27.8619 14.419 27.623 14.8329 27.814 15.1639L30.4414 19.7145C30.5303 19.8682 30.5303 20.0575 30.4414 20.2112L26.905 26.3366L26.3979 27.215C26.2206 27.5217 25.8935 27.7107 25.5392 27.7107H24.5251H17.1654H13.1844C12.8021 27.7107 12.5632 28.1246 12.7542 28.4557L14.2454 31.0382C14.5545 31.5735 15.1255 31.9033 15.7437 31.9033H19.5859H23.6913H24.2017C26.8814 31.9033 29.3578 30.4736 30.6976 28.1529L30.9528 27.7107L33.2606 23.7134C34.4559 21.6429 34.584 19.1439 33.646 16.9809C33.5669 16.7982 33.3952 16.6721 33.1967 16.6548L31.0403 16.4658Z" fill="#4253FF"/>
<path d="M21.7405 17.0375L20.9703 18.3713C20.8928 18.506 20.749 18.5889 20.5936 18.5889H15.3281C15.1727 18.5889 15.0293 18.6717 14.9514 18.8065L14.4091 19.7457C14.3316 19.8802 14.3312 20.0462 14.4091 20.1806L14.9514 21.1199C15.0293 21.2543 15.1727 21.3375 15.3281 21.3375H20.594C20.749 21.3375 20.8928 21.4203 20.9703 21.5544L23.7644 26.3811C23.8423 26.5155 23.9857 26.5981 24.1407 26.5981H25.2257C25.3811 26.5981 25.5248 26.5152 25.6024 26.3805L26.1444 25.4415C26.2222 25.3068 26.2219 25.1407 26.144 25.006L23.3505 20.1803C23.2727 20.0455 23.2723 19.8795 23.3502 19.7448L24.1687 18.3274C24.336 18.0376 24.7546 18.0376 24.922 18.3274L25.6483 19.5854C25.8156 19.8752 26.2342 19.8752 26.4016 19.5854L27.0344 18.4891C27.1119 18.3547 27.1119 18.1887 27.0344 18.0542L26.0702 16.3847L25.8057 15.9265C25.7278 15.7921 25.7278 15.626 25.8057 15.4916L26.0485 15.0711C26.2159 14.7813 26.0066 14.4186 25.6719 14.4186H23.2517H22.6648H17.7353C17.5799 14.4186 17.4362 14.5015 17.3586 14.6362L16.7258 15.7322C16.5585 16.022 16.7677 16.3847 17.1024 16.3847H21.3636C21.6986 16.385 21.9079 16.7477 21.7405 17.0375Z" fill="#4253FF"/>
<path d="M30.653 11.6964C29.3401 9.42327 26.9143 8.02283 24.2888 8.02283H19.5859H15.4628C15.0183 8.02283 14.6081 8.25975 14.3858 8.64471L10.2718 15.7705L7.95075 19.7904C7.88919 19.8972 7.88919 20.0289 7.95075 20.1357L9.14753 22.2089C9.31522 22.4994 9.61566 22.6884 9.95004 22.7137L12.5106 22.907C12.694 22.9209 12.7199 23.1791 12.5429 23.229L10.1297 23.9098L10.1354 23.9194L6.05692 25.0327C5.66831 25.1388 0.0762649 26.4886 0.478853 26.4886L9.37378 25.7111H11.1698H14.5109H15.4129C15.6788 25.7111 15.8448 25.4233 15.712 25.1934L14.7485 23.5245L13.4858 21.3375L12.9984 20.4931C12.8091 20.1653 12.8091 19.7615 12.9984 19.4337L13.4858 18.5893L16.8067 12.8376C17.0289 12.453 17.4395 12.2158 17.8837 12.2158H30.3549C30.6198 12.2154 30.7855 11.9263 30.653 11.6964Z" fill="#4253FF"/>
<path d="M48.1967 29.7782V26.105H52.8547C53.9903 26.105 54.9841 25.8832 55.8359 25.4396C56.6876 24.9782 57.3441 24.3127 57.8056 23.4433C58.2667 22.5738 58.4976 21.5445 58.4976 20.3556C58.4976 19.1667 58.2581 18.1464 57.7789 17.2946C57.3175 16.4429 56.661 15.7863 55.8093 15.325C54.9751 14.8636 53.9903 14.6329 52.8547 14.6329H48.0636V10.9863H52.908C54.3273 10.9863 55.6316 11.217 56.8207 11.6784C58.0271 12.122 59.0742 12.7697 59.9616 13.6214C60.8666 14.4555 61.5586 15.4492 62.0377 16.6026C62.5345 17.7383 62.783 18.9982 62.783 20.3823C62.783 21.7486 62.5345 23.0085 62.0377 24.1619C61.5586 25.3154 60.8752 26.3091 59.9882 27.1431C59.1008 27.9771 58.0538 28.6248 56.8473 29.0861C55.6582 29.5475 54.3629 29.7782 52.9612 29.7782H48.1967ZM45.3752 29.7782V10.9863H49.5542V29.7782H45.3752ZM71.4576 30.071C70.0559 30.071 68.8049 29.7871 67.7046 29.2192C66.6222 28.6336 65.7705 27.8262 65.1493 26.797C64.5284 25.7679 64.2177 24.6055 64.2177 23.3102C64.2177 22.0148 64.5195 20.8614 65.1227 19.8499C65.7439 18.8207 66.578 18.0133 67.6247 17.4277C68.6718 16.8421 69.8519 16.5494 71.1648 16.5494C72.4424 16.5494 73.5694 16.8244 74.5452 17.3745C75.5214 17.9246 76.2843 18.6876 76.8343 19.6636C77.4023 20.6396 77.6861 21.7575 77.6861 23.0174C77.6861 23.2481 77.6684 23.4965 77.6328 23.7627C77.6152 24.0111 77.5709 24.3039 77.4997 24.641L66.3471 24.6677V21.8728L75.7696 21.8462L74.0129 23.0174C73.9952 22.2721 73.8798 21.6599 73.6668 21.1808C73.4539 20.6839 73.1345 20.3113 72.7086 20.0629C72.3007 19.7967 71.795 19.6636 71.1914 19.6636C70.5526 19.6636 69.9936 19.8144 69.5145 20.1161C69.0534 20.4 68.6894 20.8081 68.4232 21.3405C68.175 21.8728 68.0506 22.5205 68.0506 23.2836C68.0506 24.0466 68.1837 24.7032 68.4498 25.2532C68.734 25.7856 69.1243 26.2026 69.621 26.5043C70.1357 26.7882 70.7389 26.9301 71.431 26.9301C72.0698 26.9301 72.6467 26.8237 73.1611 26.6107C73.6758 26.3801 74.1283 26.0429 74.5186 25.5993L76.7545 27.8351C76.1156 28.5804 75.3437 29.1394 74.4387 29.512C73.5338 29.8847 72.5403 30.071 71.4576 30.071ZM79.6518 29.7782V10.454H83.7242V29.7782H79.6518ZM86.5922 29.7782V16.8421H90.6647V29.7782H86.5922ZM88.6418 15.0588C88.003 15.0588 87.4706 14.8458 87.0447 14.42C86.6365 13.9764 86.4325 13.444 86.4325 12.8229C86.4325 12.1841 86.6365 11.6518 87.0447 11.2259C87.4706 10.8 88.003 10.5871 88.6418 10.5871C89.2806 10.5871 89.804 10.8 90.2122 11.2259C90.6201 11.6518 90.8244 12.1841 90.8244 12.8229C90.8244 13.444 90.6201 13.9764 90.2122 14.42C89.804 14.8458 89.2806 15.0588 88.6418 15.0588ZM97.6048 29.7782L92.1217 16.8421H96.5135L100.24 27.6222H98.3235L102.05 16.8421H106.362L100.879 29.7516L97.6048 29.7782ZM113.853 30.071C112.451 30.071 111.2 29.7871 110.1 29.2192C109.018 28.6336 108.166 27.8262 107.545 26.797C106.924 25.7679 106.613 24.6055 106.613 23.3102C106.613 22.0148 106.915 20.8614 107.518 19.8499C108.139 18.8207 108.973 18.0133 110.02 17.4277C111.067 16.8421 112.247 16.5494 113.56 16.5494C114.838 16.5494 115.965 16.8244 116.941 17.3745C117.917 17.9246 118.68 18.6876 119.23 19.6636C119.798 20.6396 120.082 21.7575 120.082 23.0174C120.082 23.2481 120.064 23.4965 120.028 23.7627C120.011 24.0111 119.966 24.3039 119.895 24.641L108.743 24.6677V21.8728L118.165 21.8462L116.408 23.0174C116.391 22.2721 116.275 21.6599 116.062 21.1808C115.849 20.6839 115.53 20.3113 115.104 20.0629C114.696 19.7967 114.19 19.6636 113.587 19.6636C112.948 19.6636 112.389 19.8144 111.91 20.1161C111.449 20.4 111.085 20.8081 110.819 21.3405C110.57 21.8728 110.446 22.5205 110.446 23.2836C110.446 24.0466 110.579 24.7032 110.845 25.2532C111.129 25.7856 111.52 26.2026 112.016 26.5043C112.531 26.7882 113.134 26.9301 113.826 26.9301C114.465 26.9301 115.042 26.8237 115.557 26.6107C116.071 26.3801 116.524 26.0429 116.914 25.5993L119.15 27.8351C118.511 28.5804 117.739 29.1394 116.834 29.512C115.929 29.8847 114.935 30.071 113.853 30.071ZM122.42 29.7782V10.9863H126.599V29.7782H122.42ZM125.614 22.4052V18.8118H135.01V22.4052H125.614ZM125.614 14.5797V10.9863H135.436V14.5797H125.614ZM137.748 29.7782V16.8421H141.82V29.7782H137.748ZM141.82 22.6714L140.116 21.3405C140.453 19.8322 141.021 18.661 141.82 17.827C142.618 16.993 143.727 16.576 145.147 16.576C145.768 16.576 146.309 16.6736 146.771 16.8688C147.25 17.0462 147.667 17.3301 148.022 17.7205L145.6 20.7815C145.422 20.5863 145.2 20.4355 144.934 20.329C144.668 20.2226 144.366 20.1693 144.029 20.1693C143.355 20.1693 142.813 20.3823 142.406 20.8081C142.015 21.2163 141.82 21.8373 141.82 22.6714ZM155.131 30.071C153.729 30.071 152.478 29.7871 151.378 29.2192C150.295 28.6336 149.444 27.8262 148.823 26.797C148.201 25.7679 147.891 24.6055 147.891 23.3102C147.891 22.0148 148.192 20.8614 148.796 19.8499C149.417 18.8207 150.251 18.0133 151.298 17.4277C152.345 16.8421 153.525 16.5494 154.838 16.5494C156.116 16.5494 157.242 16.8244 158.219 17.3745C159.194 17.9246 159.957 18.6876 160.508 19.6636C161.075 20.6396 161.359 21.7575 161.359 23.0174C161.359 23.2481 161.341 23.4965 161.306 23.7627C161.288 24.0111 161.244 24.3039 161.173 24.641L150.02 24.6677V21.8728L159.443 21.8462L157.686 23.0174C157.668 22.2721 157.553 21.6599 157.34 21.1808C157.127 20.6839 156.808 20.3113 156.382 20.0629C155.974 19.7967 155.468 19.6636 154.865 19.6636C154.226 19.6636 153.667 19.8144 153.188 20.1161C152.726 20.4 152.363 20.8081 152.097 21.3405C151.848 21.8728 151.724 22.5205 151.724 23.2836C151.724 24.0466 151.857 24.7032 152.123 25.2532C152.407 25.7856 152.797 26.2026 153.294 26.5043C153.809 26.7882 154.412 26.9301 155.104 26.9301C155.743 26.9301 156.32 26.8237 156.834 26.6107C157.349 26.3801 157.801 26.0429 158.192 25.5993L160.428 27.8351C159.789 28.5804 159.017 29.1394 158.112 29.512C157.207 29.8847 156.213 30.071 155.131 30.071ZM169.713 30.071C168.311 30.071 167.06 29.7871 165.96 29.2192C164.878 28.6336 164.026 27.8262 163.405 26.797C162.784 25.7679 162.473 24.6055 162.473 23.3102C162.473 22.0148 162.775 20.8614 163.378 19.8499C163.999 18.8207 164.833 18.0133 165.88 17.4277C166.927 16.8421 168.107 16.5494 169.421 16.5494C170.698 16.5494 171.825 16.8244 172.801 17.3745C173.777 17.9246 174.54 18.6876 175.09 19.6636C175.658 20.6396 175.942 21.7575 175.942 23.0174C175.942 23.2481 175.924 23.4965 175.889 23.7627C175.871 24.0111 175.826 24.3039 175.755 24.641L164.603 24.6677V21.8728L174.025 21.8462L172.269 23.0174C172.251 22.2721 172.135 21.6599 171.923 21.1808C171.71 20.6839 171.39 20.3113 170.964 20.0629C170.556 19.7967 170.05 19.6636 169.447 19.6636C168.808 19.6636 168.249 19.8144 167.77 20.1161C167.309 20.4 166.945 20.8081 166.679 21.3405C166.43 21.8728 166.306 22.5205 166.306 23.2836C166.306 24.0466 166.439 24.7032 166.706 25.2532C166.989 25.7856 167.38 26.2026 167.877 26.5043C168.391 26.7882 168.995 26.9301 169.687 26.9301C170.326 26.9301 170.902 26.8237 171.417 26.6107C171.931 26.3801 172.384 26.0429 172.774 25.5993L175.01 27.8351C174.371 28.5804 173.599 29.1394 172.694 29.512C171.789 29.8847 170.796 30.071 169.713 30.071Z" fill="#4253FF"/>
</svg>
