<svg width="42" height="42" viewBox="0 0 42 42" fill="none" xmlns="http://www.w3.org/2000/svg">
<path d="M29 17H26V13H12C10.9 13 10 13.9 10 15V26H12C12 27.66 13.34 29 15 29C16.66 29 18 27.66 18 26H24C24 27.66 25.34 29 27 29C28.66 29 30 27.66 30 26H32V21L29 17ZM28.5 18.5L30.46 21H26V18.5H28.5ZM15 27C14.45 27 14 26.55 14 26C14 25.45 14.45 25 15 25C15.55 25 16 25.45 16 26C16 26.55 15.55 27 15 27ZM17.22 24C16.67 23.39 15.89 23 15 23C14.11 23 13.33 23.39 12.78 24H12V15H24V24H17.22ZM27 27C26.45 27 26 26.55 26 26C26 25.45 26.45 25 27 25C27.55 25 28 25.45 28 26C28 26.55 27.55 27 27 27Z" fill="#606060"/>
</svg>
